<svg width="58" height="58" viewBox="0 0 58 58" fill="none" xmlns="http://www.w3.org/2000/svg">
<rect width="58" height="58" rx="29" fill="#F5F5F5"/>
<path d="M32.727 26.2452C32.9955 25.9767 32.9955 25.5414 32.727 25.2729C32.4585 25.0044 32.0232 25.0044 31.7547 25.2729L28.9999 28.0277L26.2452 25.2729C25.9767 25.0044 25.5414 25.0044 25.2729 25.2729C25.0044 25.5414 25.0044 25.9767 25.2729 26.2452L28.0277 28.9999L25.2729 31.7547C25.0044 32.0232 25.0044 32.4585 25.2729 32.727C25.5414 32.9955 25.9767 32.9955 26.2452 32.727L28.9999 29.9722L31.7547 32.727C32.0232 32.9955 32.4585 32.9955 32.727 32.727C32.9955 32.4585 32.9955 32.0232 32.727 31.7547L29.9722 28.9999L32.727 26.2452Z" fill="black"/>
</svg>
