<svg width="58" height="58" viewBox="0 0 58 58" fill="none" xmlns="http://www.w3.org/2000/svg">
<rect width="58" height="58" rx="29" fill="#F5F5F5"/>
<path d="M29.0007 21.2085C24.6974 21.2085 21.209 24.6969 21.209 29.0002C21.209 33.3034 24.6974 36.7918 29.0007 36.7918C33.0502 36.7918 36.3777 33.703 36.7564 29.7525C36.7741 29.5687 36.6796 29.3922 36.5168 29.3049C36.3541 29.2176 36.1548 29.2365 36.0114 29.3529C35.2234 29.9923 34.2198 30.3752 33.1257 30.3752C30.5943 30.3752 28.5423 28.3231 28.5423 25.7918C28.5423 24.2884 29.2657 22.954 30.3854 22.1175C30.5334 22.0069 30.6005 21.8182 30.5556 21.639C30.5107 21.4597 30.3626 21.325 30.1799 21.2972C29.795 21.2388 29.4012 21.2085 29.0007 21.2085Z" fill="black"/>
</svg>
