<svg width="14" height="14" viewBox="0 0 14 14" fill="none" xmlns="http://www.w3.org/2000/svg">
<path d="M6.99935 0.125C5.27346 0.125 3.87435 1.52411 3.87435 3.25C3.87435 4.97589 5.27346 6.375 6.99935 6.375C8.72524 6.375 10.1243 4.97589 10.1243 3.25C10.1243 1.52411 8.72524 0.125 6.99935 0.125Z" fill="black"/>
<path d="M3.66602 8.04167C1.94013 8.04167 0.541016 9.44078 0.541016 11.1667V12.1569C0.541016 12.7846 0.995919 13.3198 1.61541 13.4209C5.1811 14.0031 8.8176 14.0031 12.3833 13.4209C13.0028 13.3198 13.4577 12.7846 13.4577 12.1569V11.1667C13.4577 9.44078 12.0586 8.04167 10.3327 8.04167H10.0486C9.89488 8.04167 9.7421 8.06598 9.59596 8.1137L8.87469 8.34921C7.65612 8.74712 6.34258 8.74712 5.124 8.34921L4.40274 8.1137C4.25659 8.06598 4.10382 8.04167 3.95007 8.04167H3.66602Z" fill="black"/>
</svg>
